<?xml version="1.0" encoding="UTF-8"?>
<svg width="251px" height="232px" viewBox="0 0 251 232" version="1.1" xmlns="http://www.w3.org/2000/svg" xmlns:xlink="http://www.w3.org/1999/xlink">
    <title>heart1</title>
    <g id="web" stroke="none" stroke-width="1" fill="none" fill-rule="evenodd">
        <g id="Desktop-HD" transform="translate(-97.000000, -233.000000)" fill="#FB1472" fill-rule="nonzero">
            <g id="logo" transform="translate(97.000000, 233.000000)">
                <g id="heart1">
                    <path d="M125.891408,230.475651 L124.629,231.54 L124.629826,231.998971 L124.358,231.769 L124.332382,231.791829 L124.332,231.747 L123.779785,231.280811 C124.48402,231.013434 125.187892,230.745041 125.891408,230.475651 Z M132.457906,224.937726 L129.934257,227.065206 C127.468562,228.119732 125.00447,229.177001 122.542078,230.23653 L121.342962,229.225735 C125.058007,227.825268 128.762783,226.394802 132.457906,224.937726 Z M139.970002,218.598692 L133.049,224.435678 C129.037333,225.927235 125.025667,227.430752 121.014,228.94623 L118.315623,226.671676 C125.526751,223.954841 132.748092,221.271882 139.970002,218.598692 Z M149.824796,210.285 L143.392796,215.711 L139.1,217.3 C131.695,220.02958 124.29,222.751857 116.885,225.466829 L115.474806,224.275716 C122.93201,221.263388 130.373741,218.231694 137.8,215.2 L149.824796,210.285 Z M159.697916,201.955749 L156.661898,204.517995 C153.465935,205.829322 150.270413,207.139803 147.075034,208.448697 L145.215796,209.209 L146.358457,208.797917 C149.418169,207.693688 152.47646,206.585316 155.532961,205.471768 L150.55524,209.672473 C138.422673,214.181426 126.270759,218.659727 114.099497,223.115886 L113.095994,222.271415 C121.309942,218.962352 129.517929,215.625548 137.724966,212.273525 L145.215796,209.209 L142.59561,210.153635 C140.086603,211.05615 137.576741,211.956165 135.06623,212.85425 L131.3,214.2 C124.790611,216.529048 118.273296,218.838282 111.750422,221.134803 L111.517796,220.937 L111.748438,220.845312 C118.6,218.11875 125.45,215.4 132.3,212.7 C141.421303,209.083483 150.552849,205.497696 159.697916,201.955749 Z M167.641514,195.252877 L161.136658,200.74465 C145.469204,206.509043 129.744928,212.111965 114.012431,217.640895 L109.489796,219.227 L109.449796,219.193 L113.75,217.35 C118.825,215.175 123.9,213 129,210.8 L142.154796,205.161 L144.09485,204.399248 C151.938481,201.324175 159.786647,198.271773 167.641514,195.252877 Z M173.788,190.070772 L170.146,193.141602 C167.630667,194.223515 165.115333,195.30928 162.6,196.4 L162.6,196.4 L142.154796,205.161 L137.0625,207.1625 C127.561722,210.903695 118.066649,214.673419 108.573427,218.452397 L107.371796,217.44 L135.7,205.3 C142.48,202.42 149.26,199.54 156.04,196.6384 L162.798796,193.737 L168.66,191.7808 C170.369333,191.210629 172.078667,190.640652 173.788,190.070772 Z M146.215796,199.287 L145.707407,199.511111 C139.766667,202.133333 133.833333,204.766667 127.9,207.4 C120.828128,210.538405 113.756256,213.69432 106.677057,216.853091 L103.786796,214.415 L110.218796,211.542 L111.627,211.0524 C116.709,209.289 121.8,207.54 126.9,205.8 L137.34,202.2712 L137.34,202.2712 L146.215796,199.287 Z M105.247796,213.276 L103.489062,213.996875 C103.444421,214.015097 103.399778,214.033318 103.355134,214.051536 L103.261796,213.972 L105.247796,213.276 Z M121.035796,206.719 L113.1016,210.2552 L113.1016,210.2552 L110.218796,211.542 L106.548,212.8208 L106.548,212.8208 L105.247796,213.276 L106.955722,212.577259 C111.576057,210.679155 116.188958,208.760058 120.795299,206.82172 L121.035796,206.719 Z M115.814796,206.063 L115.101935,206.361185 C110.433197,208.302067 105.756436,210.224066 101.070389,212.124971 L100.303723,211.476291 C103.87406,210.215261 107.448819,208.96405 111.028,207.7208 L115.814796,206.063 Z M203.139937,165.307913 L202.063866,166.218847 C184.228842,174.241561 166.324417,182.110772 148.3,189.7 C131.741992,196.698746 115.086855,203.406102 98.297743,209.785226 L96.292704,208.09282 C100.801788,206.174405 105.31622,204.267852 109.836,202.3736 L110.666796,202.026 L113.517025,200.912575 C126.45925,195.82825 139.3225,190.5475 152.125,185.125 L153.527796,184.528 L154.506414,184.138776 C170.668046,177.714499 186.871769,171.437545 203.139937,165.307913 Z M210.368796,159.21 L209.658244,159.813818 C204.643856,162.086285 199.624972,164.349231 194.6,166.6 C181.91,172.27 169.1795,177.859 156.390275,183.312325 L153.527796,184.528 L148.801567,186.413265 L148.801567,186.413265 L143.1,188.7 C133.833333,192.433333 124.588889,196.222222 115.366667,200.062963 L110.666796,202.026 L109.2,202.6 L109.2,202.6 C104.761172,204.338095 100.315194,206.04759 95.8620658,207.730395 L93.5795952,205.803533 C97.6840534,204.052257 101.792027,202.315989 105.9,200.6 C132.6,189.4 159.4,178.7 186.4,168.3 C194.090909,165.354545 201.781818,162.438843 209.474756,159.546807 L210.368796,159.21 Z M149.239796,194.69 L145.435449,196.338989 C139.535937,198.884375 133.625,201.40625 127.7,203.9 C126.55,204.389286 125.399617,204.877423 124.248838,205.364386 L121.045796,206.715 L123.3912,205.6704 L123.3912,205.6704 L133.7,201.1 C135.925,200.1125 138.151562,199.126562 140.379492,198.142383 L144.908796,196.146 L146.522157,195.601458 L146.522157,195.601458 L149.239796,194.69 Z M196.807029,170.655941 L189.358796,176.934 L187.3,177.8 L187.3,177.8 C173.875,183.5 160.45,189.3125 147.067187,195.195312 L144.908796,196.146 L139.005831,198.140233 C136.502041,198.989796 134,199.842857 131.5,200.7 C126.37,202.44 121.249,204.189 116.137,205.9524 L115.814796,206.063 L119.439068,204.551841 C138.223629,196.688355 156.884391,188.529658 175.503888,180.220182 L179.8,178.3 C185.475112,175.761134 191.143254,173.211813 196.807029,170.655941 Z M222.224313,149.209151 L214.459191,155.757925 C184.519348,167.698391 154.721689,179.923226 125,192.3 C114.39252,196.679235 103.795564,201.079515 93.1988891,205.483773 L92.8622314,205.19986 C102.603654,200.857845 112.311348,196.443204 122,192 C133.535714,186.678571 145.058673,181.306122 156.587099,175.937318 L160.183796,174.262 L170.703429,169.947462 L170.703429,169.947462 L182.1,165.3 C195.453697,159.885239 208.823969,154.503627 222.224313,149.209151 Z M179.761796,165.173 L177.348105,166.289213 C172.731487,168.427114 168.117493,170.570845 163.504956,172.71691 L160.183796,174.262 L159.31262,174.620439 C136.535665,183.989163 113.783402,193.486283 90.9965706,202.963649 L90.469796,203.181 L90.461796,203.175 L91.5402344,202.697461 C93.5767578,201.790723 95.6116211,200.881006 97.6449707,199.968579 L97.660796,199.961 L99.3721259,199.244215 C106.838222,196.107333 114.28,192.92 121.7,189.7 C133.6625,184.4875 145.596875,179.204687 157.524219,173.904297 L161.259796,172.242 L167.437026,169.885131 C170.126531,168.857143 172.814286,167.828571 175.5,166.8 L179.761796,165.173 Z M138.618796,181.221 L134.113428,183.310229 C124.011133,187.986621 113.892969,192.635547 103.740625,197.223437 L97.660796,199.961 L96.1708741,200.585452 C94.2121366,201.403772 92.2517034,202.218451 90.289529,203.029169 L88.4725281,201.49536 C100.542046,196.577521 112.621023,191.682221 124.7,186.8 L137.787695,181.554883 L137.787695,181.554883 L138.618796,181.221 Z M106.032796,192.979 L103.239062,194.170312 C98.0260253,196.383289 92.8030864,198.573161 87.5681004,200.734352 L86.7523941,200.046573 C92.9229309,197.80334 99.0913889,195.543813 105.265625,193.264062 L106.032796,192.979 Z M159.793796,169.391 L155.916,171.1216 L155.916,171.1216 L152.257796,172.751 L148.403704,174.292593 C127.613765,182.62181 106.835663,191.03388 86.0905564,199.486486 L83.9504646,197.682115 C97.6270683,192.737735 111.235961,187.724015 124.9,182.6 C134.35,179.05 143.8,175.475 153.2375,171.8875 L159.793796,169.391 Z M180.461008,184.43911 L176.355796,187.903 L169.6,190.8 L169.6,190.8 L162.82,193.7288 L162.82,193.7288 L162.798796,193.737 L158.22,195.2664 C154.74,196.4296 151.26,197.5944 147.78,198.7616 L146.215796,199.287 L151.650892,196.893004 C161.218413,192.68793 170.811501,188.521206 180.461008,184.43911 Z M243.347476,131.391939 L242.412,132.18021 C237.908,134.024798 233.404,135.866036 228.9,137.7 L228.9,137.7 L174.6,159.9 C156.1,167.5 137.6,175 119,182.6 C107.07498,187.409539 95.1933665,192.262484 83.2979637,197.130239 L80.901796,195.11 L125.2,177 C140,170.92 154.8,164.904 169.6512,158.8496 L175.514796,156.456 L176.958008,155.94082 C193.65,149.948437 210.275,143.8125 226.9,137.6 C232.383535,135.551553 237.867071,133.483242 243.347476,131.391939 Z M189.333796,176.956 L180.672796,184.262 L176.657434,185.586297 C169.115452,188.073761 161.576093,190.566472 154.04723,193.080175 L149.239796,194.69 L151.33125,193.785937 C163.115625,188.664844 174.857812,183.455859 186.578906,178.195898 L189.333796,176.956 Z M183.845796,160.192 L180.244986,161.861043 C178.99632,162.44032 177.748,163.02 176.5,163.6 C166.40625,168.2875 156.322266,172.994531 146.229736,177.687524 L143.113796,179.134 L135.097668,182.155685 C132.398834,183.169679 129.699417,184.180758 126.999708,185.188338 L118.9,188.2 C116.625,189.05 114.351562,189.896875 112.079297,190.74082 L106.032796,192.979 L108.0485,192.1211 C122.46875,185.95475 136.818125,179.624375 151.142187,173.248437 L152.257796,172.751 L160.034431,169.64225 C163.91166,168.095199 167.789163,166.551303 171.666804,165.010837 L182.897796,160.558 L183.845796,160.192 Z M92.222796,185.667 L88.280015,187.349437 C84.5995186,188.912272 80.911323,190.462703 77.2144077,191.999709 L76.194388,191.140775 C78.363122,190.403479 80.531561,189.664887 82.7,188.925 L92.222796,185.667 Z M136.9,166.766667 C149.9,162.188889 162.9,157.566667 175.9,152.9 C194.9,146 213.8,139.1 232.6,132 C238.064238,129.935026 243.518384,127.85996 248.962437,125.768388 L248.963011,126.487575 C244.313691,128.391717 239.660884,130.295858 235,132.2 C216.9,139.6 198.9,147 180.8,154.3 L175.514796,156.456 L169.8,158.5 C152.825,164.625 135.696875,170.596875 118.616602,176.549609 L111.3,179.1 C104.933333,181.3 98.5777778,183.488889 92.2259259,185.666667 L92.222796,185.667 L92.9036063,185.377986 C102.142975,181.422314 111.336364,177.390909 120.5,173.3 L127.994169,169.945481 L127.994169,169.945481 L128.498796,169.717 L127.15,170.191667 C123.9,171.330556 120.65,172.466667 117.4,173.6 L114.748796,174.511 L109.8,176.3 C106.06,177.64 102.32,178.98 98.58,180.3208 L92.994796,182.324 L92.237037,182.651852 C86.5111111,185.111111 80.7666667,187.533333 75,189.9 L74.815796,189.975 L73.888796,189.193 L76.14,188.3816 C79.88,187.0344 83.62,185.6896 87.36,184.3464 L92.994796,182.324 L96.5280671,180.800752 L96.5280671,180.800752 L96.755796,180.701 L94.3952,181.5136 C90.5648,182.8304 86.7352,184.1456 82.9048,185.4584 L80.514796,186.275 L79.5361821,186.697432 C78.4832701,187.152778 77.4308986,187.609419 76.3791011,188.0674 L73.858796,189.168 L73.337796,188.729 L80.514796,186.275 L82.6965057,185.335239 C95.3440166,179.901665 108.064516,174.648387 120.8,169.5 L125.279796,167.706 L123.057813,168.512109 C120.673438,169.375 118.2875,170.2375 115.9,171.1 C101.066667,176.414617 86.2333333,181.729234 71.4,187.093761 L71.13511,186.870941 C72.2559372,186.379382 73.3775754,185.889101 74.5,185.4 C108.6,170.6 143.2,157 178,143.8 L178,143.8 L180.590796,142.82 L185.894461,140.357726 C197.876968,134.789213 209.823032,129.235277 221.805539,123.768805 L229,120.5 C232.377778,118.944444 235.760494,117.398765 239.148148,115.862963 L240.500796,115.251 L241.8,114.8 C244.187934,113.969694 246.575868,113.139388 248.963376,112.308656 L248.962066,114.536774 C240.587247,118.285141 232.243623,122.078082 223.9,125.9 L223.9,125.9 L216.137796,129.466 L221.158017,127.589504 C230.422847,124.129817 239.693103,120.673385 248.962504,117.207648 L248.96259,119.804724 C244.158858,121.892335 239.339036,123.941192 234.503125,125.955859 L234.293796,126.042 L236.2304,125.3192 C240.471879,123.736322 244.716606,122.152362 248.962061,120.566061 L248.96294,122.865265 C240.218984,126.65638 231.422496,130.330204 222.6,133.9 C204.2,141.4 185.7,148.5 167.1,155.4 C156.185714,159.457143 145.271429,163.44898 134.357143,167.412828 L130.540796,168.796 L128.499796,169.717 Z M87.4232,169.7448 C79.0544959,172.990344 70.670453,176.193706 62.2962582,179.413656 L59.641796,177.175 L60.1,177 C77.0777778,170.511111 94.0555556,163.864198 110.9631,157.059259 L117.3,154.5 C136.6,146.6 155.8,138.5 175,130.1 C178.2,128.7 181.394444,127.294444 184.583796,125.882407 L186.350796,125.097 L187.974486,124.615226 C192.889712,123.150206 197.801646,121.676955 202.706996,120.192181 L209.302796,118.185 L204.898197,120.194891 C194.462434,124.937641 183.977986,129.601953 173.461082,134.204057 L168.2,136.5 C162.44,138.99 156.671,141.462 150.893,143.9133 L148.778796,144.807 L145.241108,146.163848 C131.716327,151.369388 118.257143,156.757143 104.9,162.4 C101.471429,163.857143 98.0612245,165.35102 94.6536443,166.842274 L92.821796,167.642 L93.1541,167.5139 C98.882,165.275 104.6,163.01 110.3,160.7 C121.94,156.02 133.544,151.232 145.112,146.3576 L148.778796,144.807 L149.300474,144.60758 C152.007981,143.573615 154.717966,142.546647 157.430138,141.526093 L161.5,140 C173.08,135.68 184.696,131.504 196.3264,127.3856 L200.461796,125.924 L204.959259,123.888889 C209.179012,121.985185 213.40535,120.091358 217.640466,118.2107 L224,115.4 C228.423529,113.447059 232.858131,111.510727 237.305109,109.597517 L237.377796,109.566 L240.7872,108.4984 C243.514122,107.640599 246.239474,106.775735 248.962708,105.902708 L248.96187,107.967835 C245.443776,109.434008 241.93281,110.917407 238.427734,112.416797 L235.255796,113.779 L238.025926,112.822222 C241.670557,111.564166 245.316489,110.30611 248.96218,109.045739 L248.961709,111.447753 C247.38452,112.151928 245.808394,112.858233 244.233333,113.566667 L240.500796,115.251 L227.890625,119.640625 L227.890625,119.640625 L214,124.5 C210.472727,125.736364 206.945455,126.976033 203.418783,128.220811 L199.989796,129.433 L197.825926,130.414815 C187.183951,135.254321 176.552263,140.165844 165.896571,145.063649 L159.5,148 C140.2,156.9 121,165.6 101.5,173.9 C91.2917628,178.223489 81.0474674,182.474861 70.7238091,186.524203 L68.154446,184.35651 C82.0175244,178.999645 95.7176471,173.208707 109.3,167.3 C128.7,158.8 147.9,150 167.1,141.2 L165.821796,141.785 L161.166041,143.518783 L161.166041,143.518783 L155.9,145.5 C137.1,152.6 118.4,160 100,168 C92.4,171.3 84.9,174.7 77.2,177.7 C73.3375552,179.225904 69.4523723,180.706332 65.5661364,182.173811 L62.7712795,179.814666 C68.8761468,177.470677 74.9672308,175.143653 81,172.7 C84.4285714,171.285714 87.8387755,169.816327 91.2463557,168.331195 L92.819796,167.643 Z M157.626796,173.626 L150.876562,176.320312 L150.876562,176.320312 L138.618796,181.221 L140.173047,180.501367 L140.173047,180.501367 L143.113796,179.134 L143.192128,179.105539 C145.889504,178.086297 148.586006,177.064723 151.281341,176.041399 L157.626796,173.626 Z M164.214796,153.444 L158.70625,155.490625 C149.23125,158.996875 139.73125,162.465625 130.20625,165.921875 L129.709796,166.101 L126.4,167.6 L126.4,167.6 C117.9,171.4 109.375,175.2 100.8125,178.9375 L96.755796,180.701 L105.8904,177.5592 L105.8904,177.5592 L114.748796,174.511 L117.985714,173.342274 C120.714286,172.355977 123.442857,171.369096 126.171429,170.38105 L130.540796,168.796 L135.477843,166.569971 C142.956851,163.185131 150.422741,159.774052 157.883382,156.352478 L164.214796,153.444 Z M177.575796,127.7 L169.34,130.8112 L169.34,130.8112 L158.3,135 C139.5,142.2 120.8,149.4 102,156.6 C83.7,163.6 65.4,170.7 47.2,177.8 L56.216796,174.285 L53.5260002,172.015965 C68.6173477,166.112804 83.70958,160.276027 98.8578704,154.450463 L108.1,150.9 C117.45,147.3 126.825,143.7 136.2125,140.1125 L138.823796,139.116 L143.7369,137.667078 C146.190123,136.944444 148.644444,136.222222 151.1,135.5 C158.466667,133.333333 165.844444,131.166667 173.222222,128.988889 L177.575796,127.7 Z M162.679796,171.611 L161.259796,172.242 L159.363557,172.966764 L159.363557,172.966764 L157.626796,173.626 L162.679796,171.611 Z M230.843796,141.938 L230.608796,142.137 L230.201458,142.316217 C227.708309,143.41629 225.218076,144.521757 222.730175,145.631742 L219,147.3 C209.714286,151.442857 200.453061,155.65102 191.206997,159.896501 L185.231796,162.646 L177.0625,165.8875 C172.696875,167.621875 168.332031,169.358594 163.967773,171.097461 L162.679796,171.611 L169.45,168.6 C185.35,161.525 201.25,154.45 217.2,147.5 L221.727141,145.554282 L221.727141,145.554282 L223.165796,144.939 L224.94,144.2488 L224.94,144.2488 L230.843796,141.938 Z M119.035796,141.946 L111.774074,144.677778 C104.922222,147.255556 98.0666667,149.833333 91.2,152.4 C87.8181818,153.672727 84.4330579,154.942149 81.0452292,156.206461 L76.244796,157.992 L77.7630859,157.522852 C80.175,156.778125 82.5875,156.0375 85,155.3 C94.7777778,152.277778 104.555556,149.314815 114.342112,146.384774 L120.823796,144.45 L115.3875,146.5 C108.579167,149.066667 101.765278,151.633333 94.9421296,154.185185 L84.7,158 C73.621099,162.11675 62.542198,166.2335 51.4189192,170.239306 L48.7792442,168.013382 C57.8495132,164.774192 66.9140834,161.457934 75.9615327,158.098873 L76.244796,157.992 L74.1457275,158.64314 C65.3124434,161.387341 56.4909551,164.193143 47.7100716,167.10856 L45.0798047,164.889233 C60.4233325,159.778157 75.8616662,154.978283 91.3,150.3 C99.625,147.75 107.964062,145.242187 116.311914,142.755469 L119.035796,141.946 Z M239.63812,134.519294 L238.226932,135.708991 C220.020961,143.581598 201.968081,151.802707 183.992045,160.124506 L183.978796,160.13 L195.867187,155.42168 C204.248437,152.108789 212.635937,148.807617 221.029687,145.516602 L230.662796,141.746 L230.795312,141.690625 C231.023831,141.593868 231.25237,141.497151 231.480928,141.400474 L231.424796,141.448 L230.662796,141.746 L226.258796,143.617593 L226.258796,143.617593 L223.165796,144.939 L214.08,148.4784 C206.84,151.2928 199.6,154.0976 192.36,156.8992 L183.845796,160.192 L183.976796,160.131 L183.3,160.4 L183.3,160.4 L182.897796,160.558 L181.5,161.1 L181.5,161.1 C175.233333,163.5 168.955556,165.9 162.67037,168.296296 L159.793796,169.391 L160.688312,168.992362 C163.869437,167.572287 167.049812,166.151262 170.229937,164.730587 L175,162.6 C196.448633,153.059756 217.943047,143.565293 239.63812,134.519294 Z M132.564796,164.809 L127.290967,166.90293 L127.290967,166.90293 L125.279796,167.706 L129.709796,166.101 L132.564796,164.809 Z M224.786159,147.046566 L223.245901,148.348743 C207.362342,154.574482 191.468831,160.724901 175.5,166.8 L179.761796,165.173 L184.275146,163.087172 L184.275146,163.087172 L185.231796,162.646 L190.161914,160.691602 C201.69532,156.12435 213.235536,151.574806 224.786159,147.046566 Z M248.961682,89.8491441 L248.962035,92.8352247 C240.396423,95.7368593 231.840322,98.6605403 223.3,101.6 C184.7,115 146.3,128.7 107.8,142.2 C86.6571706,149.613719 65.5143412,156.997281 44.3218265,164.251313 L41.8056461,162.128774 C46.4076791,160.557732 51.0061223,158.981149 55.6,157.4 C94.2,144 132.6,130.3 171.1,116.8 C197.023367,107.709988 222.946733,98.6653146 248.961682,89.8491441 Z M60.090796,152.83 L54.6502197,155.119507 C49.9538034,157.10028 45.259885,159.088947 40.5682624,161.084093 L38.3879662,159.245688 C40.1594432,158.733703 41.9301211,158.218449 43.7,157.7 C48.3846154,156.338462 53.0692308,154.950296 57.7513883,153.53919 L60.090796,152.83 Z M57.440796,150.669 L53.1,152.5 L53.1,152.5 L42.700463,156.90787 L42.700463,156.90787 L37.990796,158.91 L35.7816339,157.046654 C38.9912479,156.126309 42.1996245,155.19557 45.4076013,154.254438 L50,152.9 C51.5538462,152.438462 53.1076923,151.974556 54.6614474,151.50833 L57.440796,150.669 Z M111.573796,125.016 L109.909375,125.684375 L109.909375,125.684375 L95.6,131.4 C76.7,139 57.8,146.5 38.8,153.8 C37.2243444,154.40271 35.6486888,155.004678 34.0729056,155.60565 L31.3384302,153.298591 C36.0278226,151.509952 40.7139113,149.708219 45.4,147.9 C51.7333333,145.466667 58.0666667,143 64.3962963,140.511111 L68.112796,139.045 L71.3248047,138.020117 C74.05,137.148437 76.775,136.275 79.5,135.4 C89.38,132.24 99.26,129.048 109.1336,125.8176 L111.573796,125.016 Z M213.6896,130.5912 L216.137796,129.466 L206.756268,132.973761 C201.957726,134.770554 197.161516,136.569971 192.368513,138.373761 L180.590796,142.82 L178.7,143.7 L178.7,143.7 C164.2,150.366667 149.7,157.033333 135.14213,163.64213 L132.564796,164.809 L133.788672,164.323437 C146.790625,159.18125 159.83125,154.1375 172.9,149.15 L176.539796,147.763 L172.8,149.5 C170.314286,150.642857 167.828571,151.785714 165.342566,152.927988 L164.214796,153.444 L165.807813,152.853516 L165.807813,152.853516 L172.9,150.2 C191.4,143.2 209.8,136.1 228.1,128.6 C229.16875,128.1625 230.236719,127.723437 231.303906,127.282764 L234.292796,126.042 L225.3,129.4 C209.9875,135.13125 194.694141,140.8625 179.43667,146.660742 L176.542796,147.762 L183.0104,144.7608 C193.2296,140.0232 203.4704,135.2928 213.6896,130.5912 Z M248.96222,78.6135614 L248.961796,81.775 L245.935496,82.7266667 C236.375881,85.7444444 226.848207,88.8711111 217.362637,92.1066667 L213.3,93.5 C176.3,106.2 139.7,120.2 103.5,134.9 C98.8375,136.7875 94.178125,138.6875 89.5216797,140.598633 L88.851796,140.873 L91.8874829,139.896495 C96.5269003,138.39513 101.158944,136.876149 105.781156,135.340783 L110.4,133.8 C130.1,127.2 149.8,120.3 169.3,113.1 C187.8,106.3 206.3,99.3 224.6,91.9 C232.745367,88.6219865 240.866066,85.2699691 248.962097,81.8561995 L248.96338,85.0989727 C239.289091,89.1465801 229.561426,93.1070505 219.8,97 C201.2,104.3 182.6,111.4 163.9,118.2 C144.2,125.3 124.3,132.2 104.4,138.8 C90.4846154,143.369231 76.4733728,147.842604 62.4326354,152.120574 L60.090796,152.83 L61.6166016,152.188086 C68.5848633,149.262793 75.5588379,146.356396 82.5391846,143.473511 L88.851796,140.873 L87.2456987,141.391944 C77.9575785,144.370915 68.6432408,147.277788 59.3223487,150.102731 L57.440796,150.669 L58.3435806,150.28917 C91.5577799,136.30947 124.869431,122.758557 158.574787,110.006749 L163.9,108 C191.970497,97.4832298 220.339984,87.56444 248.96222,78.6135614 Z M106.105796,123.86 L102.3,125.4 L102.3,125.4 C91.8,129.622222 81.2691358,133.844444 70.7245542,138.015226 L68.112796,139.045 L63.1484375,140.629687 C51.7915696,144.246048 40.4279208,147.828502 29.0433644,151.362926 L26.417796,149.147 L28.1625,148.607617 C44.8875,143.412695 61.6125,138.154492 78.3375,132.79082 L86.7,130.1 C92.9,128.125 99.0875,126.1375 105.265625,124.134375 L106.105796,123.86 Z M248.962298,64.5600159 L248.961645,66.4428627 C235.517017,71.3859299 222.087186,76.3716423 208.7,81.4 C187.3,89.4 165.9,97.5 144.5,105.5 C123.3,113.5 102.1,121.4 80.8,129.3 C62.2,136.2 43.5,143.2 24.6,149.6 L26.275796,149.027 L23.5345404,146.714818 C24.8778636,146.264853 26.2201596,145.813589 27.5610098,145.360062 L29.8,144.6 C49.2,138 68.3,130.7 87.5,123.6 C108.9,115.7 130.2,107.7 151.5,99.7 C172.9,91.7 194.3,83.6 215.8,75.6 C218.714286,74.5142857 221.630612,73.4285714 224.548688,72.3434402 L228.111796,71.02 L230.8243,70.1667 C236.864325,68.273624 242.911387,66.403667 248.962298,64.5600159 Z M188.575796,83.732 L187.894385,84.0006104 C157.389453,95.9503906 126.79375,107.70625 96,119 C71.3468816,128.024218 46.5654762,136.791863 21.6278205,145.107189 L19.7141125,143.491388 C25.6738783,141.244763 31.6369391,139.012103 37.6,136.8 L44.8462891,134.104883 L44.8462891,134.104883 L47.307796,133.194 L51.3314643,131.79177 C70.3201989,125.142695 89.2575446,118.276955 108.131001,111.269547 L110.578796,110.358 L117.855273,107.804102 C130.114063,103.514062 142.3875,99.2875 154.7,95.1 C165.588889,91.3777778 176.477778,87.717284 187.40096,84.1185185 L188.575796,83.732 Z M175.212796,125.3 L164.4,129.4 L164.4,129.4 C158.133333,131.766667 151.866667,134.144444 145.603704,136.52963 L138.823796,139.116 L136.380384,139.836626 C131.478052,141.284362 126.579561,142.735391 121.683813,144.193004 L120.823796,144.45 L125.596296,142.651852 C132.4,140.088889 139.2,137.533333 146,135 C150.1,133.48 154.204,131.96 158.312,130.4432 L159.850796,129.875 L165.436626,128.206584 C167.883128,127.477366 170.330453,126.749794 172.778189,126.023045 L175.212796,125.3 Z M184.292796,82.212 L183.354047,82.579561 C175.006173,85.8358025 166.655556,89.0777778 158.3,92.3 C143.716667,97.9 129.087963,103.45463 114.41977,108.928601 L110.578796,110.358 L110.501563,110.385937 C108.050781,111.249219 105.600391,112.115234 103.150195,112.98418 L95.8,115.6 C81.25,120.775 66.64375,126.0625 52.1078125,131.420312 L47.307796,133.194 L45,134 L45,134 C36.3289025,136.985802 27.6410758,139.938146 18.9365198,142.836504 L17.1485028,141.327433 C26.0916827,137.953738 35.0458414,134.603941 44,131.3 L42.910796,131.702 L45.5921283,130.787755 C54,127.910204 62.4,125.014286 70.8,122.1 C92.6,114.6 114.3,107 136,99.3 C149.26,94.62 162.484,89.94 175.6936,85.26 L184.292796,82.212 Z M248.711796,96.137 L245.864063,97.51875 C242.813021,98.99375 239.757118,100.460417 236.695891,101.91875 L233.635796,103.371 L229.1896,105.0208 L229.1896,105.0208 L220.460796,108.257 L220.283676,108.317695 C217.157956,109.373868 214.036248,110.442078 210.917627,111.519547 L207.8,112.6 C193.31,117.64 178.869,122.876 164.477,128.1708 L159.850796,129.875 L158.1,130.4 L158.1,130.4 C146.95,133.7 135.8,136.975 124.6625,140.275 L119.035796,141.946 L122.05,140.8125 C128.9,138.2375 135.75,135.668056 142.607407,133.115278 L152.9,129.3 C173.4,121.7 193.9,114.2 214.6,107.2 C225.783333,103.411111 237.041358,99.6969136 248.374074,96.2399863 L248.711796,96.137 Z M235.255796,113.779 L228.807407,116.006944 C225.736111,117.069444 222.666667,118.133333 219.6,119.2 C213.78,121.24 207.96,123.28 202.1427,125.3308 L200.461796,125.924 L198.634294,126.75144 C188.1,131.533333 177.6,136.366667 167.1,141.2 L165.821796,141.785 L166.436589,141.556048 C176.981893,137.648159 187.55154,133.84305 198.129301,130.092036 L199.989796,129.433 L204.21262,127.520439 C208.471605,125.597531 212.733333,123.688889 217,121.8 C222.9375,119.14375 228.884766,116.526562 234.8479,113.954541 L235.255796,113.779 Z M248.961151,55.9339704 L248.961549,56.786361 C231.259176,63.7695691 213.570325,70.7532808 195.874074,77.6851852 L187.949796,80.783 L184.748,81.8408 C176.916,84.436 169.1,87.06 161.3,89.7 C141.6,96.3 122,103.2 102.4,110.1 C82.9,117 63.4,124.1 44,131.3 L42.910796,131.702 L37.1813411,133.659184 C31.5720117,135.569388 25.9580175,137.471429 20.3370262,139.365306 L16.392796,140.69 L15.6950006,140.101773 C15.6966671,140.101182 15.6983335,140.100591 15.7,140.1 C35.5,133.1 55.2,126 74.9,118.8 C95.6,111.2 116.3,103.7 137,96.1 C147.2,92.4 157.4,88.675 167.6,84.9625 L169.904796,84.124 L176.45,81.8 C181.9375,79.85 187.425,77.9 192.915625,75.95 L209.4,70.1 C222.610594,65.354447 235.780062,60.6500193 248.961151,55.9339704 Z M248.255721,51.2189683 L248.962207,51.8054874 L248.962076,54.3480531 C232.635609,62.3046825 215.241619,67.8556818 198.2,73.9 C191.4,76.3333333 184.6,78.7888889 177.8,81.2555556 L169.904796,84.124 L159.984375,87.65 C154.49375,89.6 149,91.55 143.5,93.5 C121.7,101.2 99.8,108.9 77.9,116.5 C58,123.4 38,130.3 18,137 L13.730796,138.445 L13.0394169,137.858715 C14.5593432,137.319039 16.0727235,136.780393 17.5790352,136.243151 L20.5,135.2 C40.4,128.1 60.2,120.9 80,113.7 C100.8,106.2 121.5,98.6 142.2,91 C162.4,83.6 182.6,76.3 202.8,69.1 C213,65.5 223.1,62.1 233.1,58 C238.192746,55.8908831 243.285492,53.6759155 248.255721,51.2189683 Z M240.428161,44.7152513 L241.684996,45.7603294 C234.933732,48.9549837 228.067476,51.9139694 221.160556,54.7735537 L220.922796,54.871 L223.940504,53.7713481 C230.321357,51.4550525 236.717764,49.1806821 243.132954,46.9611585 L244.08689,47.755969 C240.789094,49.3363756 237.471278,50.8669593 234.137148,52.3576031 L232.346796,53.152 L235.4144,52.0864 C238.692975,50.9526553 241.977899,49.8343288 245.270137,48.7372145 L247.98885,50.9956007 C235.364084,55.1369231 222.801134,59.6184615 210.3,64.1 C190,71.4 169.9,78.9 149.7,86.4 C128.2,94.4 106.7,102.5 85.1,110.5 C64.9,118 44.6,125.5 24.3,132.7 C20.2335912,134.155875 16.1545808,135.605449 12.0645506,137.039233 L11.4498466,136.521088 C35.3407639,127.792702 59.020382,118.49135 82.7,109.1 L89.9787852,106.195052 L89.9787852,106.195052 L94.363796,104.439 L89.9665295,105.925926 L89.9665295,105.925926 L82.9,108.3 L82.9,108.3 L80.501796,109.093 L77.6484375,110.154687 C62.19375,115.8875 46.725,121.55 31.2,127.1 C23.9568028,129.686856 16.6950173,132.273712 9.41464332,134.804469 L8.75556519,134.247873 C17.0185748,131.235958 25.2592874,128.153334 33.5,125 C35.9333333,124.073333 38.3648889,123.142667 40.7948444,122.208356 L43.348796,121.222 L37.9984375,122.939062 C35.4992188,123.738281 32.9996094,124.534766 30.4998047,125.32832 L23,127.7 C17.6616509,129.389351 12.3118862,131.067286 6.95070586,132.726092 L5.42335236,131.437648 C12.930658,128.702482 20.4221794,125.929385 27.8979167,123.149711 L31.243796,121.904 L37.3123047,119.957617 C52.5361328,115.062695 67.7529297,110.104492 82.9205078,105.04082 L90.5,102.5 L90.5,102.5 L92.502796,101.831 L98.8976,99.2672 C110.976267,94.4178667 123.050489,89.5485333 135.142489,84.7036444 L142.4,81.8 C174.835951,68.8983051 207.437003,56.1617101 240.428161,44.7152513 Z M122.145796,86.82 L119.203704,87.9703704 C111.9,90.8222222 104.6,93.6666667 97.3,96.5 C75.8,104.9 54.2,113.3 32.6,121.4 L32.6,121.4 L31.243796,121.904 L29.7,122.4 L29.7,122.4 C21.1441676,125.115324 12.6408307,127.778153 4.1630945,130.375038 L2.84138944,129.259524 C14.8263005,124.899675 26.7631502,120.43849 38.7,115.9 L38.7,115.9 L40.314796,115.283 L41.6666667,114.833333 C55.2888889,110.277778 68.8666667,105.633333 82.4,100.9 C95.3375,96.4 108.235938,91.821875 121.119727,87.1900391 L122.145796,86.82 Z M117.294796,85.436 L117.1312,85.5 C112.784,87.2 108.44,88.9 104.1,90.6 C85.4142857,97.8857143 66.7285714,105.171429 48.0428571,112.331195 L40.314796,115.283 L34.8518519,117.103704 C32.5790123,117.858025 30.3049383,118.609877 28.0296296,119.359259 L21.2,121.6 C14.5787115,123.762053 7.95742308,125.88987 1.33227932,127.987305 L-1.30104261e-18,126.861742 L-0.000552178428,125.529834 C0.629146188,125.298539 1.25896642,125.067618 1.88888889,124.837037 L3.99079602,124.069 L6.99947408,123.106762 C12.379414,121.37731 17.7539444,119.630278 23.1271225,117.867693 L28.5,116.1 C49,109.3 69.5,102.3 89.9,95.1 C96.8,92.7 103.688889,90.2777778 110.57037,87.8333333 L117.294796,85.436 Z M196.280796,120.66 L194.137037,121.625926 C192.547222,122.338889 190.95625,123.05 189.364063,123.759375 L186.350796,125.097 L180.599588,126.806996 L180.599588,126.806996 L177.575796,127.7 L180.38,126.6416 C184.06,125.2544 187.74,123.8696 191.42,122.4864 L196.280796,120.66 Z M232.107693,37.8048991 L233.422033,38.8967473 C223.425672,43.3869614 213.212836,47.4148656 203,51.5 C184,59 165,66.1 145.9,73.2 C124.6,81.1 103.2,88.9 81.7,96.5 C61.7,103.6 41.6,110.5 21.6,117.7 C16.1277778,119.672222 10.6478395,121.644444 5.17304527,123.6381 L3.99079602,124.069 L1.61758077,124.830278 C1.07868116,125.002188 0.53971381,125.173915 0.000674647021,125.345457 L-0.000417989179,122.089627 C9.04181218,118.754892 18.1209061,115.507043 27.2,112.3 C47.5,105.2 67.8,98.1 88,90.9 C109.2,83.3 130.4,75.7 151.5,67.8 C170.1,60.9 188.7,53.8 207.1,46.4 C208.35,45.9 209.6,45.4 210.8495,44.8988 L212.461796,44.25 L214.933748,43.4667259 C220.672959,41.6422743 226.410748,39.7779948 232.107693,37.8048991 Z M230.095796,105.05 L232.1,104.1 C224.225,107.85 216.332639,111.530556 208.415683,115.156134 L206.849796,115.87 L202.144444,117.288889 C197.255556,118.755556 192.361728,120.212346 187.466255,121.665844 L175.212796,125.3 L175.32,125.2608 C186.24,121.1232 197.16,116.9928 208.08,112.8912 L219,108.8 L219,108.8 L220.460796,108.257 L223.410768,107.265638 C225.496433,106.567078 227.584019,105.87428 229.6738,105.188066 L230.095796,105.05 Z M248.961948,68.7431323 L248.961796,72.107 L247.646647,72.5606414 C236.014869,76.5909621 224.453936,80.8043003 212.937281,85.1475219 L209.1,86.6 C190.2,93.7 171.5,101.1 152.8,108.5 L156.312796,107.109 L160.7,105.6 C181.23125,98.475 201.7625,91.1742187 222.046558,83.2856689 L226.1,81.7 C234.5,78.4 242.8,75 251,71.3 L248.961796,72.211 L248.963001,75.4795649 C240.261625,79.3281624 231.349048,82.7799954 222.514798,86.1788757 L220.9,86.8 C198.7,95.4 176.1,103.3 153.5,111 C141.2,115.2 128.875,119.325 116.5375,123.3875 L111.573796,125.016 L124.2,119.95 C133.725,116.125 143.25,112.3 152.8,108.5 L156.312796,107.109 L154.549884,107.716782 C140.199074,112.637037 125.842593,117.426852 111.440741,122.125926 L106.105796,123.86 L111.800463,121.55787 C124.468981,116.444907 137.144907,111.368981 149.85787,106.300463 L159.4,102.5 C178.1,95.1 196.7,87.8 215.5,80.8 C226.614991,76.6787114 237.768973,72.6354072 248.961948,68.7431323 Z M155.596796,79.907 L153.4,80.7 L153.4,80.7 C134.4,87.5181818 115.4,94.1710744 96.249737,100.583546 L92.502796,101.831 L91.6496889,102.174044 C77.1520889,107.981511 62.6416889,113.747378 48.0800889,119.394844 L43.348796,121.222 L45.4947266,120.533398 C55.4876953,117.31543 65.4712891,114.056836 75.4330078,110.770117 L80.501796,109.093 L85.3748047,107.282617 L85.3748047,107.282617 L93.1,104.4 C98.475,102.4 103.85,100.39375 109.225,98.384375 L112.560796,97.136 L119.081481,94.5148148 C131.207407,89.6407407 143.337037,84.7703704 155.485185,79.9518519 L155.596796,79.907 Z M179.787796,54.4 L178.34,54.9592 L178.34,54.9592 L167.6,59.1 C145.9,67.4 124.2,75.7 102.4,83.8 C80.2,92.1 58,100.3 35.8,108.4 C23.8746263,112.725265 11.9492527,117.012351 0.000288100276,121.214075 L-0.000203979327,118.011 L2.57037037,117.107407 C13.5395062,113.230864 24.4880658,109.282305 35.4331962,105.296022 L42,102.9 C64.3,94.7 86.6,86.5 108.9,78.1 C116.066667,75.4 123.233333,72.7 130.396296,69.9962963 L134.265796,68.534 L135.2027,68.2367 C141.2,66.338 147.2,64.46 153.2,62.6 C161.85,59.9 170.5,57.25 179.1375,54.6 L179.787796,54.4 Z M218.571796,112.303 L213.5,114.2 C209.82,115.58 206.14,116.96 202.46,118.3408 L196.280796,120.66 L198.903067,119.481366 C200.490625,118.764583 202.077083,118.045833 203.6625,117.325 L206.849796,115.87 L209.473663,115.080658 C211.915226,114.341564 214.355144,113.599177 216.793004,112.852675 L218.571796,112.303 Z M248.963026,102.793534 L248.961719,104.652038 C246.183592,105.813102 243.410684,106.985293 240.642683,108.167047 L237.377796,109.566 L236.892593,109.718519 C231.698519,111.339259 226.499704,112.936296 221.299941,114.517215 L217.4,115.7 C214.955556,116.455556 212.508642,117.207407 210.059671,117.955967 L209.302796,118.185 L210.111946,117.816905 C215.321488,115.432231 220.518182,113.027273 225.7,110.6 L228.750796,109.159 L231.73443,108.233244 C237.488527,106.441886 243.232308,104.634142 248.963026,102.793534 Z M89.4761963,83.1985107 L90.123796,82.978 L95.5,81.0416667 C111.5,75.2638889 127.5,69.4166667 143.5,63.5 L152.99213,59.9421296 L152.99213,59.9421296 L155.702796,58.92 L153.3301,59.6604 C151.3402,60.2808 149.3504,60.9016 147.3608,61.5232 L144.636796,62.375 L140.290625,63.884375 C129.959375,67.465625 119.640625,71.034375 109.309375,74.615625 L93.8,80 C72.7,87.3 51.7,94.6 30.6,101.9 L30.6,101.9 L29.710796,102.207 L28.7944604,102.574316 C23.0782444,104.873839 17.3716939,107.244645 11.6917235,109.698011 L10.624796,110.161 L13.2616078,109.305785 C18.3090909,107.659504 23.3545455,105.990909 28.4,104.3 C39.0666667,100.744444 49.7333333,97.1271605 60.3828532,93.4481481 L61.322796,93.122 L58.9877197,93.9768311 C51.3917725,96.7686768 43.8177979,99.6405029 36.2710693,102.60813 L32.5,104.1 C21.5632341,108.451186 10.6956165,113.009818 -0.00120486256,117.918202 L-0.00102202238,114.888391 C3.0752194,113.484136 6.16285295,112.106798 9.25912715,110.754541 L10.621796,110.162 L8.2133734,110.944628 C5.47642456,111.828965 2.73868095,112.706746 -0.000180532784,113.577969 L-0.00062892001,112.453723 C6.31958072,110.279977 12.6397904,108.10065 18.96,105.9192 L29.710796,102.207 L31.2448097,101.593137 C32.8787047,100.941884 34.5131914,100.296318 36.1478754,99.6561765 L38.6,98.7 C58.8,90.8 79.2,83.6 99.7,76.8 C113.56,72.18 127.469,67.756 141.3927,63.3908 L144.636796,62.375 L155.8,58.5 L155.8,58.5 L166.6704,54.7312 L166.6704,54.7312 L168.124796,54.23 L171.9375,52.7875 C181.4,49.2 190.85,45.6 200.3,42 C208.696149,38.7601817 217.071476,35.5203633 225.444983,32.2710436 L226.443,33.0984253 C225.928667,33.2989944 225.414333,33.4994972 224.9,33.7 C219.985714,35.6428571 215.071429,37.5693878 210.157143,39.4842566 L203.021796,42.256 L210.2,39.8 L210.2,39.8 C215.927259,37.8339261 221.672785,35.8678522 227.428772,33.9173938 L229.031,35.2487572 C226.454,36.2637595 223.877,37.2789245 221.3,38.3 L221.3,38.3 L218.099796,39.547 L216.244861,40.1362304 C214.164706,40.7941176 212.082353,41.4470588 210,42.1 C200.4,45.1285714 190.734694,48.0918367 181.060058,51.0644315 L176.563796,52.447 L173.3,53.7 L173.3,53.7 C162.6,57.8 151.875,61.875 141.1375,65.9375 L134.265796,68.534 L129.2064,70.1424 C119.2144,73.3304 109.2324,76.5784 99.2729,79.8989 L93.3,81.9 L93.3,81.9 L90.123796,82.978 L85.9,84.5 C79.5333333,86.7666667 73.1555556,89.0111111 66.7703704,91.2333333 L61.328796,93.12 L62.7875,92.5875 C71.6578125,89.3609375 80.5568359,86.2396484 89.4761963,83.1985107 Z M235.191796,106.107 L235.033796,106.182407 C231.927778,107.661111 228.816667,109.133333 225.7,110.6 L228.750796,109.159 L227.918637,109.418489 C226.646222,109.812889 225.373333,110.206667 224.1,110.6 L218.571796,112.303 L222.05787,111.000463 C224.912963,109.934259 227.77037,108.868519 230.62963,107.803704 L235.191796,106.107 Z M152.541796,56.686 L149.3,57.9 L149.3,57.9 C130.2,65.1 111,72.1 91.7,79 C72.7,85.8 53.6,92.5 34.4,98.9 C22.9711641,102.771057 11.5045729,106.528849 0.000226399379,110.196573 L0.000461475888,109.545601 C12.5943282,105.214608 25.1766342,100.857304 37.8,96.5 C58.9,89.2 80.1,81.8 101.2,74.5 C121.7,67.4 142.1,60.3 162.6,53.2 L152.541796,56.686 Z M69.293796,83.571 L62.9,85.9 C51.8,90 40.6,94 29.5,98 C20.1,101.4 10.6,104.8 1.2,108.1 C0.79894963,108.243232 0.398227508,108.386136 -0.00220397933,108.528731 L-0.000140118547,107.386253 C1.23316378,106.957121 2.46658189,106.528561 3.7,106.1 C22,99.7 40.3,93.4 58.6,87.2 L69.293796,83.571 Z M248.962079,99.4891238 L248.962409,101.001321 C245.711101,102.202808 242.460906,103.40676 239.2125,104.6125 L235.191796,106.107 L239.689062,103.959375 C242.784759,102.476519 245.875611,100.986742 248.962079,99.4891238 Z M48.263796,87.87 L44.234375,89.325 C41.39375,90.35 38.55,91.375 35.7,92.4 C25.8,96 15.9,99.5 5.9,103 C3.93403472,103.698435 1.96806944,104.39687 0.000373196811,105.093574 L-0.000307040574,104.553291 C3.1311708,103.460906 6.2655854,102.377455 9.4,101.3 C22,96.9 34.6,92.5444444 47.2,88.2333333 L48.263796,87.87 Z M248.96214,97.6933792 L248.961796,99.087 L248.548491,99.2121399 C243.284945,100.810391 238.040261,102.465226 232.810151,104.163786 L230.095796,105.05 L232.1,104.1 L232.1,104.1 L233.635796,103.371 L239.3648,101.2464 C242.564177,100.060411 245.762843,98.8758465 248.96214,97.6933792 Z M232.346796,53.152 L232.337037,53.1555556 C227.211111,54.9444444 222.1,56.7666667 217,58.6 C197.2,65.7 177.4,73 157.6,80.3 C146.85,84.3 136.1,88.325 125.35,92.35 L112.560796,97.136 L111.806252,97.4393185 C106.956237,99.3887704 102.106341,101.337274 97.2556148,103.281748 L94.363796,104.439 L97.0322359,103.537037 C113.517284,97.945679 129.988889,92.2333333 146.4,86.4 C165.8,79.5 185.1,72.4 204.2,64.8 C213.484211,61.1368421 222.728532,57.3939058 231.857384,53.3696457 L232.346796,53.152 Z M216.23755,24.6203924 L217.436,25.6169594 C213.649007,27.053396 209.861584,28.476698 206.1,29.9 C196.3,33.6 186.5,37.2 176.7,40.9 C172.18,42.58 167.644,44.26 163.0984,45.94 L162.558796,46.138 L158.800463,47.450463 L158.800463,47.450463 L149.5,50.7 C127.5,58.4 105.5,66 83.5,73.6 C61.9,81 40.3,88.4 18.7,95.5 C12.4795588,97.5495095 6.24618914,99.599019 -0.00010913408,101.620637 L5.91251611e-05,99.4919955 C2.39927302,98.6228722 4.79963651,97.7598317 7.2,96.9 C13.725,94.575 20.25,92.278125 26.7802734,90.0041016 L32.507796,88.016 L35.3425656,87.0653061 C50.9125364,81.8306122 66.4752187,76.544898 81.9941691,71.2081633 L91.3,68 C113.1,60.5 134.9,52.9 156.7,45.3 C174.7,39 192.7,32.7 210.8,26.5 C212.614988,25.8777184 214.426988,25.2494609 216.23755,24.6203924 Z M195.490625,26.75 L180.1,31.7 C153.814286,40.1285714 127.528571,48.6081633 101.2793,57.1387755 L88.420796,61.323 L85.521272,62.4686535 C83.8521326,63.1263902 82.1825289,63.7830364 80.5123529,64.4383436 L75.5,66.4 C50.6434337,76.0780468 25.5444767,85.3197905 0.000608158416,93.0113657 L0.000205080833,90.3997253 C23.2219308,82.6730326 46.4885291,75.0365163 69.8,67.4 L85.5344023,62.2632653 L85.5344023,62.2632653 L88.420796,61.323 L90.5274052,60.4924198 C97.2006803,57.8537415 103.868254,55.2015873 110.537037,52.5518519 L113.718796,51.288 L109.7,52.6 C93.9142857,57.7428571 78.077551,62.8857143 62.2262391,67.9556851 L59.812796,68.724 L56.7988338,69.8638484 C46.6489796,73.6836735 36.4571429,77.3857143 26.2,80.9 C17.5065215,83.8695546 8.7759992,86.7094561 0.000461991792,89.3798485 L-0.00122001602,87.5806079 C2.08199492,86.8877678 4.1659342,86.1958741 6.25072886,85.5046647 L10.751796,84.014 L13.7603009,83.1133681 C23.6,80.1493056 33.4,77.0916667 43.2,74 L52.7139942,70.9883382 L52.7139942,70.9883382 L59.812796,68.724 L60.6031068,68.4260295 C64.4055029,66.9829628 68.2024052,65.5245627 71.9950437,64.054519 L74.490796,63.084 L84.5650146,59.7979592 C94.9026239,56.4306122 105.243732,53.0714286 115.586006,49.7204082 L126.998796,46.027 L130.553925,44.6257964 C143.91015,39.3677897 157.298855,34.1830364 170.775327,29.1986934 L171.268796,29.016 L171.377843,28.9865889 C176.791837,27.4693878 182.2,25.9428571 187.6,24.4 C194.676294,22.4279179 201.737636,20.4408835 208.789808,18.433115 L209.85519,19.3179935 C183.576736,27.7519389 157.312861,36.200462 131.1,44.7 L126.998796,46.027 L125.546755,46.6007343 C122.209513,47.9193176 118.873869,49.2414858 115.538959,50.5652521 L113.718796,51.288 L123.8592,47.98 C142.736,41.82 161.6,35.66 180.4,29.5 C190.381,26.2369808 200.362,22.9739615 210.343,19.7219915 L211.780934,20.9184322 C210.130283,21.5680508 208.478482,22.2146162 206.8256,22.8584 L203.071796,24.315 L210.9,21.8 C211.367106,21.6499805 211.834212,21.4999611 212.301316,21.3499416 L214.741454,23.3774009 C202.88256,28.0764641 190.960683,32.577039 179,37 C158.9,44.4 138.6,51.6 118.4,58.6 C98.8,65.4 79.2,72.1 59.5,78.8 C50.75,81.75 42.025,84.725 33.3125,87.7375 L32.507796,88.016 L26,90.2 L26,90.2 C17.340652,93.0864493 8.68130406,95.9497553 -0.000311237589,98.7565171 L-0.000320053542,95.9137209 C3.86364091,94.5229939 7.73182046,93.1538628 11.6,91.8 C29.3,85.6 46.9,79.5 64.6,73.5 C84.4,66.7 104.2,60 124,53.1 C144.1,46.1 164.2,39 184.2,31.5 C190.5,29.1333333 196.788889,26.7444444 203.062963,24.3185185 L195.490625,26.75 L195.490625,26.75 Z M218.729301,26.6896834 L220.147619,27.8676214 C213.89642,30.2741999 207.59821,32.6673297 201.3,35 C191.1,38.8 180.8,42.6 170.6,46.4 L172.911796,45.54 L160.2848,49.8384 C151.264,52.904 142.24,55.96 133.2,59 C110.8,66.6 88.5,74.1 66.1,81.8 L56.65,85.0083333 L56.65,85.0083333 L48.274796,87.866 L52.75,86.25 C55.5875,85.225 58.425,84.2 61.265625,83.175 L69.8,80.1 C82,75.7 94.1,71.2 106.3,66.8 C118.4,62.4 130.5,58 142.6,53.5 C147.16,51.82 151.72,50.14 156.2736,48.46 L162.558796,46.138 L168.103704,44.2037037 C180.511111,39.8777778 192.933333,35.5666667 205.4,31.3 C209.852177,29.7647664 214.289624,28.2148019 218.729301,26.6896834 Z M112.612796,47.99 L109.824854,49.1026239 C98.4912172,53.6226312 87.1561042,58.1485423 75.7863065,62.5807307 L74.490796,63.084 L69.061516,64.855102 C53.5612245,69.9183673 38.0714286,75 22.6,80.1 L14.4201166,82.8005831 L14.4201166,82.8005831 L10.751796,84.014 L9.54074074,84.3777778 C6.36585285,85.3239779 3.18625309,86.2595764 0.000612797225,87.1825801 L9.8470658e-05,83.5065245 C16.7557792,78.649584 33.4278896,73.374792 50.1,68.1 C72.6,61 95.1,53.7 117.5,46.4 L112.612796,47.99 Z M237.593101,42.3607489 L238.706623,43.2852373 C227.517273,47.597872 216.308637,51.8823172 205.1,56.1 C184.9,63.8 164.6,71.4 144.3,78.8 C139.15,80.675 134,82.54375 128.848438,84.4046875 L122.145796,86.82 L130.1625,83.6875 C141.125,79.4 152.1,75.1 163.1,70.8 C182.7,63.2 202.4,55.5 222.1,48.1 C227.270887,46.1783865 232.429568,44.256773 237.593101,42.3607489 Z M234.889793,40.1161297 L236.112,41.1336592 C228.208,44.1727197 220.304,47.1948333 212.4,50.2 C192.2,57.9 172,65.4 151.8,72.9 C140.355556,77.1222222 128.911111,81.282716 117.44952,85.3814815 L117.294796,85.436 L130.1816,80.4 C138.8872,77 147.6024,73.6 156.3208,70.2 L169.4,65.1 C188.5,57.6 207.7,50.2 226.9,43.1 C229.559706,42.1002523 232.222971,41.1040627 234.889793,40.1161297 Z M248.961496,61.4011494 L248.962026,63.3039179 C243.740436,65.2268132 238.521832,67.1567386 233.307872,69.090379 L228.111796,71.02 L225.1112,71.9648 C223.2076,72.5664 221.3048,73.1702 219.4029,73.7761 L213.7,75.6 C207.1,77.7 200.522222,79.8222222 193.959259,81.9666667 L188.575796,83.732 L194.932422,81.2396484 C199.623437,79.396875 204.3125,77.55 209,75.7 L221.5896,70.7592 L221.5896,70.7592 L231.941796,66.668 L232.702195,66.4296296 C238.116753,64.737072 243.534955,63.0609119 248.961496,61.4011494 Z M221.438297,28.9416372 L222.627103,29.9308084 C217.145951,32.0611616 211.668412,34.1851447 206.2,36.3 C200.8,38.3857143 195.391837,40.4632653 189.977843,42.5326531 L187.766796,43.375 L124.9,64.7 L124.9,64.7 L69.293796,83.571 L71.959375,82.6 C81.00625,79.3 90.025,76 99.1,72.7 C111.3,68.2 123.5,63.8 135.8,59.3 L170.6,46.4 L170.6,46.4 L172.911796,45.54 L173.8152,45.2336 C178.3256,43.6968 182.8368,42.1584 187.3504,40.6192 L200.9,36 C207.746099,33.6498466 214.592198,31.2996932 221.438297,28.9416372 Z M76.021796,55.642 L75.4142857,55.8516035 C67.1428571,58.7081633 58.8714286,61.5857143 50.6,64.5 C34.5,70.1 18.4,75.8 2.4,81.6 C1.59975528,81.8936678 0.799510554,82.1873356 -0.000694597383,82.4810825 L-0.000508344848,79.8277578 C2.42925686,78.95003 4.86245822,78.075015 7.3,77.2 C14.3714286,74.6285714 21.4612245,72.0938776 28.561516,69.5801749 L32.769796,68.094 L36.5296296,66.9888889 C48.9,63.3666667 61.3,59.8333333 73.7,56.3 L76.021796,55.642 Z M193.191796,79.058 L188.8992,80.58 L188.8992,80.58 L184.292796,82.212 L187.949796,80.783 L190.625,79.9 L190.625,79.9 L193.191796,79.058 Z M220.922796,54.871 L219.935496,55.2313185 C210.595111,58.6502222 201.286667,62.1533333 192,65.7 C182.24,69.4333333 172.501333,73.2306667 162.776415,77.0673481 L155.596796,79.907 L157.759763,79.1270824 C173.739053,73.3456987 189.646746,67.4045972 205.48284,61.12203 L209.8,59.4 C212.959091,58.1272727 216.118182,56.8493802 219.270229,55.5534091 L220.922796,54.871 Z M248.962383,59.1734745 L248.961611,59.9290482 C244.02871,61.881303 239.097309,63.83656 234.1648,65.7896 L231.941796,66.668 L226.400274,68.4074074 C224.3,69.0691358 222.2,69.7333333 220.1,70.4 C212.22,72.88 204.356,75.408 196.508,77.9712 L193.191796,79.058 L202.1,75.9 L202.1,75.9 C217.692683,70.3526033 233.341562,64.7490094 248.962383,59.1734745 Z M76.959796,52.65 L73.7166181,53.7760933 C68.1428571,55.7142857 62.5714286,57.6571429 57,59.6 C49.8857143,62.0857143 42.7714286,64.5714286 35.6650146,67.0728863 L32.769796,68.094 L30.3470508,68.8078189 C28.2871056,69.4168724 26.2281207,70.0288066 24.1702332,70.6440329 L18,72.5 C11.987806,74.3208359 5.98741502,76.1534747 -0.0011730739,78.0060263 L3.61749266e-05,77.4008753 C10.9384498,73.491948 21.843443,69.4926224 32.7305034,65.4493614 L33.027796,65.338 L33.6425926,65.1583333 C46.0907407,61.5138889 58.5092593,57.9138889 70.9574074,54.3583333 L76.959796,52.65 Z M62.774796,54.203 L61.0632607,54.8468069 C53.1986852,57.8026672 45.3317618,60.7566491 37.456621,63.6911439 L33.027796,65.338 L24.3,67.9 L24.3,67.9 C16.1965902,70.2941893 8.09318035,72.730776 -0.000469120535,75.2195207 L-0.000395296335,73.9084893 C2.90406588,72.8731819 5.80628098,71.831586 8.70625,70.784375 L11.834796,69.65 L19.1633358,67.4510894 C32.02855,63.5845229 44.8877536,59.6951165 57.7361382,55.7540195 L62.774796,54.203 Z M52.719796,54.488 L46.8277092,56.7035665 C38.962963,59.6530864 31.0888889,62.5888889 23.2,65.5 C19.9833333,66.6833333 16.7638889,67.8611111 13.5416667,69.0324074 L11.834796,69.65 L9.5133734,70.3471826 C6.3423934,71.2976323 3.1711214,72.2471331 -0.000370634526,73.1961166 L0.000188822643,72.5731608 C13.6421726,67.9385427 27.2427145,63.1938841 40.8160187,58.353389 L45.345796,56.732 L46.6986111,56.3222222 C48.6759259,55.7212963 50.6530864,55.1191358 52.6300412,54.5156379 L52.719796,54.488 Z M97.2967401,24.3513275 L100.181063,26.3448977 C86.6045677,30.9667056 73.0795178,35.730232 59.6,40.6 C41.36,47.2 23.192,53.98 5.096,60.94 L4.89379602,61.017 L7.18155977,60.267019 C9.23534985,59.590707 11.2859329,58.9101676 13.3327259,58.2268586 L16.4,57.2 C32.7,51.7 48.9,45.8 65.1,39.9 C76.9839776,35.5471478 88.8202168,31.1465572 100.641702,26.6652447 L103.768153,28.823929 C89.1212121,34.4106409 74.4106061,39.96633 59.7,45.3 C43.7,51.1 27.7,56.8 11.5,62.2 C7.67469279,63.4568867 3.84191978,64.7063075 -0.000358959833,65.9380629 L-0.000203979327,62.906 L4.89079602,61.018 L4.09854227,61.2781341 C2.73363172,61.7238824 1.36743733,62.1674481 0.000129498732,62.6084053 L-1.88714854e-05,59.8496941 C5.33332075,57.792248 10.6666604,55.746124 16,53.7 C42.9031022,43.5204478 70.0020156,33.6672476 97.2967401,24.3513275 Z M203.021796,42.256 L199.3296,43.5208 C192.0768,46.0024 184.8144,48.4872 177.5552,50.9816 L168.124796,54.23 L162.47037,56.3703704 L162.47037,56.3703704 L155.702796,58.92 L159.3,57.8 C164.128571,56.2857143 168.965306,54.7877551 173.803207,53.296793 L176.563796,52.447 L180.671429,50.8708455 C188.042857,48.0405248 195.414286,45.2049563 202.785714,42.3483965 L203.021796,42.256 Z M83.479796,28.024 L80.3927114,29.1437318 C75.8591837,30.7897959 71.3285714,32.4428571 66.8,34.1 C44.5303445,42.2044632 22.3103543,50.408257 2.57332827e-05,58.2913705 L-0.00114464036,56.9268028 C5.77710221,54.7402658 11.5812238,52.6054782 17.4,50.5 C33.9,44.6 50.5,38.9 67.2,33.4 L77.3896,30.0392 L77.3896,30.0392 L83.479796,28.024 Z M223.934,31.0132815 L224.849,31.7720609 C221.799333,32.8090307 218.749667,33.8516771 215.7,34.9 C198,40.9 180.3,47 162.6,53.2 L152.542796,56.685 L157.442566,54.8510204 C165.584548,51.7959184 173.723907,48.722449 181.85277,45.6306122 L187.766796,43.375 L193,41.6 L193,41.6 C203.311333,38.0961489 213.622667,34.5672427 223.934,31.0132815 Z M120.537796,40.413 L123.343,42.3524308 C106.795333,46.9698098 90.2476667,51.5969789 73.7,56.3 L76.021796,55.642 L83.6857143,53.0014577 C91.9571429,50.1571429 100.228571,47.3285714 108.5,44.5 L117.077259,41.5862974 L117.077259,41.5862974 L120.537796,40.413 Z M62.288796,32.855 L55.9481481,35.162963 C45.3777778,39.0111111 34.8,42.8666667 24.2,46.7 C16.1543425,49.6256936 8.08778742,52.5095919 0.000334639905,55.3516949 L-0.000585297227,53.5974665 C7.10422123,50.9189744 14.2411642,48.3266479 21.4,45.8 C24.74,44.6 28.084,43.416 31.4312,42.2448 L36.389796,40.519 L37.7432823,40.1221781 C45.3443187,37.8920326 52.9489362,35.6957447 60.5,33.4 L62.288796,32.855 Z M229.648536,35.7618199 L230.676982,36.6156513 C224.747203,39.2572167 218.743973,41.7225001 212.723313,44.14595 L212.461796,44.25 L212.4488,44.2544 C210.792267,44.7781333 209.136089,45.2993778 207.481215,45.8197926 L205,46.6 C199.266667,48.4 193.522222,50.1777778 187.77037,51.9481481 L179.787796,54.4 L189.08,50.8136 C196.24,48.0472 203.4,45.2744 210.56,42.4888 L218.099796,39.547 L218.324201,39.4765113 C222.113159,38.2701849 225.892377,37.0419425 229.648536,35.7618199 Z M88.1016168,17.9966592 L91.2098072,20.1444325 C81.3557936,23.4537696 71.5181818,26.8025974 61.7,30.2 L62.662796,29.867 L64.2,29.4 C73.361688,26.5406197 82.5233761,23.5450285 91.62545,20.4330978 L93.2120769,21.5294444 C86.0542175,23.8835341 78.8860429,26.2328329 71.7,28.6 C59.94,32.52 48.18,36.44 36.4543,40.4972 L36.389796,40.519 L35.9892866,40.6374888 C28.9737659,42.701621 21.9650415,44.8033403 15.0080512,47.047502 L13.818796,47.433 L12.5848328,47.8954076 C8.38295423,49.4752872 4.18751285,51.0744785 -0.000430097538,52.6961652 L-0.000890838528,52.1844278 C4.39207592,50.5797514 8.81961147,49.06465 13.2699074,47.6115707 L13.818796,47.433 L16.3470323,46.4865515 C31.4024793,40.8710744 46.5363636,35.4909091 61.7,30.2 L62.662796,29.867 L59.4263374,30.8530864 C46.6790123,34.6950617 33.8,38.3 21,42.3 C15.8977404,43.8619162 10.8075281,45.4961163 5.75027078,47.2360527 L6.05029588,46.9837669 C11.3870663,44.9529571 16.7369676,42.9567821 22.1,41 C43.9569464,32.9929998 65.9699971,25.3502431 88.1016168,17.9966592 Z M117.928122,38.6088921 L120.501796,40.388 L114.5,42.0664 C103.1,45.256 91.7,48.46 80.3,51.7 L76.959796,52.65 L82.0793003,50.8728863 C90.4443149,47.974344 98.8172012,45.0915452 107.205831,42.2402332 L115.6,39.4 C116.376039,39.1361468 117.152078,38.8724442 117.928122,38.6088921 Z M167.383796,30.102 L152.4,35 C140.775,38.8 129.15,42.6 117.5,46.4 L112.612796,47.99 L113.602724,47.5963101 C118.639933,45.5885477 123.677578,43.5841381 128.718577,41.5918276 L132.5,40.1 L132.5,40.1 L135.185796,39.05 L138.842566,38.0338192 C146.984548,35.7720117 155.123907,33.5206997 163.25277,31.2562682 L167.383796,30.102 Z M24.410796,37.868 L19.3603259,39.6511407 C16.7506503,40.5741474 14.1417938,41.5000211 11.5339208,42.4293373 L12.0046514,42.0391191 C14.9679437,41.03176 17.9361694,40.0313862 20.9074074,39.037037 L24.410796,37.868 Z M162.657796,28.611 L158.525,30.15 C151.565,32.75 144.621,35.382 137.693,38.0716 L135.185796,39.05 L130.7,40.3 C129.351667,40.676114 128.003333,41.0522281 126.655,41.4283778 L133.349796,36.801 L137.3,35.7 C144.9,33.58 152.484,31.46 160.0584,29.34 L162.657796,28.611 Z M85.8849644,16.4656641 L87.0446476,17.2701619 C69.6387539,22.9713457 52.314656,28.5951147 34.9,34.4 C31.7888889,35.4222222 28.6777778,36.4493827 25.5688615,37.4825789 L24.410796,37.868 L24.9328,37.6848 C36.08,33.76 47.24,29.88 58.4,26 C67.5713202,22.8288995 76.732975,19.6577989 85.8849644,16.4656641 Z M49.701796,26.088 L42.25625,28.6703125 C35.0625,31.16875 27.875,33.675 20.7,36.2 L17.799796,37.225 L18.9551341,36.2651456 C24.2057114,34.5059181 29.4622571,32.7705649 34.7201,31.0404 L39.1,29.6 L39.1,29.6 L49.701796,26.088 Z M200.201386,11.298542 L202.521572,13.2252401 C191.233592,16.8598762 179.966796,20.5444014 168.7,24.3 C157.590068,27.9480375 146.480135,31.6571777 135.38709,35.3936471 L142.948742,30.1669306 C153.84695,26.5149892 164.758659,22.892679 175.7,19.3 C183.847732,16.6134505 192.014861,13.9462979 200.201386,11.298542 Z M79.170881,11.826292 L81.5822948,13.4917596 C75.6913509,15.4637175 69.7978625,17.4340458 63.9,19.4 C50.2398495,23.9219809 36.6018868,28.4439617 22.954758,32.9450399 L28.0950356,28.6731258 C40.2843839,24.4909266 52.5336054,20.4782901 64.8,16.5 C69.5886334,14.9420542 74.3799562,13.3867978 79.170881,11.826292 Z M93.3497767,21.624043 L94.4733752,22.4016575 C83.2211164,26.2820387 71.8934731,29.9529301 60.5,33.4 L62.288796,32.855 L63.8747685,32.2787037 C73.6990045,28.7064108 83.5200395,25.1469217 93.3497767,21.624043 Z M175.746796,27.371 L171.268796,29.016 L167.383796,30.102 L169.840625,29.3 L169.840625,29.3 L175.746796,27.371 Z M203.012644,13.6338007 L206.010796,16.125 L203.074796,17.262 L194.1,19.8 L194.1,19.8 C186.54,21.92 178.98,24.04 171.4136,26.16 L162.657796,28.611 L163.748,28.2056 C168.974,26.2664 174.209,24.3416 179.453,22.4204 L184.7,20.5 C190.827506,18.2462045 196.955013,15.9924091 203.012644,13.6338007 Z M96.05583,23.4935857 L96.4090808,23.7391842 C93.4608907,24.7188835 90.5131478,25.6968467 87.5648,26.6736 L83.479796,28.024 L84.9272433,27.500108 C88.6344704,26.1587459 92.3438401,24.8227078 96.05583,23.4935857 Z M206.282,16.3524034 L207.210569,17.1208083 C200.582092,19.2781991 193.946406,21.4390995 187.3,23.6 L175.746796,27.371 L175.833225,27.3392074 C177.520635,26.7226757 179.209524,26.1095238 180.9,25.5 C188.175,22.875 195.45,20.19375 202.682812,17.4140625 L203.074796,17.262 L203.15,17.2416667 C204.194,16.9455783 205.238,16.6491572 206.282,16.3524034 Z M76.7617518,10.1606905 L78.2146333,11.1656999 C62.0465021,16.5828824 45.8864663,21.9957173 29.6966438,27.3473813 L33.4646027,24.2146232 C44.0147078,20.9196941 54.5392365,17.5736123 65,14.1 C68.9277186,12.8058092 72.8486434,11.4935012 76.7617518,10.1606905 Z M194.816343,6.82522426 L197.119545,8.74008823 C192.156592,10.6546752 187.182043,12.5385775 182.2,14.4 C170.884114,18.6067702 159.515056,22.664657 148.106697,26.6048723 L156.389686,20.8811177 C169.27254,16.368412 182.09275,11.7095381 194.816343,6.82522426 Z M83.0622749,14.5166022 L83.6387735,14.9123355 C72.5426409,18.5476181 61.4259947,22.2107005 50.3304,25.8808 L49.701796,26.088 L53.0507813,24.9271484 C63.0541685,21.4622243 73.0635907,18.0018264 83.0622749,14.5166022 Z M73.6513611,8.01184294 L76.193418,9.76851883 C62.1458379,14.3483493 48.1000955,18.9163812 34.111407,23.671393 L39.2300257,19.4222846 C40.2144552,19.0759303 41.1991104,18.7301174 42.1839813,18.3848158 L45.273796,17.304 L46.8166023,16.8125175 C55.7811397,13.9457553 64.7328308,11.0270947 73.6513611,8.01184294 Z M70.0509343,5.52297668 L73.164796,7.675 L65.8,10.2 C59.4941176,12.3647059 53.1937716,14.5404844 46.9015673,16.7351516 L45.273796,17.304 L43.4147612,17.8978055 C42.1476996,18.3011122 40.8804328,18.7034955 39.6130182,19.1050817 L45.9747487,13.8182142 C53.9883587,11.0236721 62.0153904,8.26268404 70.0509343,5.52297668 Z M191.159385,3.78667568 L194.146998,6.26737153 C188.42121,8.17438534 182.706367,10.12024 177,12.1 C171.63184,13.9593627 166.274922,15.8412099 160.927224,17.7421702 L171.317998,10.5625541 C177.917973,8.26190013 184.531329,5.9999702 191.159385,3.78667568 Z M59.673796,7.407 L58,8.1 C54.6228185,9.49745442 51.2413989,10.8843138 47.8554329,12.2596527 L50.286796,10.237 L50.4582446,10.1866307 C53.2052632,9.3598338 55.9526316,8.53157895 58.7,7.7 L59.673796,7.407 Z M54.454796,8.041 L52.0728134,9.01701895 C51.8641066,9.10257966 51.6554057,9.18815157 51.4467103,9.27373398 L51.975796,8.834 L54.454796,8.041 Z M186.984796,0.319 L189.674159,2.55371512 C182.24186,5.3979726 174.812636,8.2489863 167.4,11.1 L174.474796,8.381 L185.093796,1.043 L186.984796,0.319 Z M66.5520856,3.10604269 L67.596796,3.827 L64.0665295,4.96268861 L64.0665295,4.96268861 L54.9,7.9 L54.9,7.9 L54.454796,8.041 L57,7 L57,7 C60.1838339,5.70149519 63.3676678,4.40299038 66.5520856,3.10604269 Z M67.8654506,4.01374492 L68.8171392,4.67058038 C65.4432867,5.68138193 62.0699634,6.68901099 58.7,7.7 L59.673796,7.407 L63.9439236,5.64375 C65.2519165,5.10132474 66.5590755,4.55798971 67.8654506,4.01374492 Z M59.546796,4.165 L59.3946667,4.22865185 C58.1641723,4.73378283 56.9334108,5.23780957 55.7023821,5.74067684 L56.4924467,5.08380667 C56.9467117,4.94758268 57.4009554,4.81130009 57.8551758,4.67495117 L59.546796,4.165 Z M64.895796,1.961 L65.4926031,2.37393626 C64.5535487,2.65807052 63.6143411,2.94173565 62.675,3.225 L59.546796,4.165 L64.1546667,2.26868148 L64.1546667,2.26868148 L64.895796,1.961 Z M63.7188863,1.14648317 L64.547796,1.72 L60.15,3.1375 L60.15,3.1375 L58.002796,3.827 L58.825796,3.144 L61.4125,2.0875 C62.181243,1.77368015 62.9500335,1.46000298 63.7188863,1.14648317 Z M96.4139745,38.0006762 C87.5214876,41.3247934 78.6181818,44.6272727 69.7,47.9 C62.0058824,50.7235294 54.3062284,53.5193772 46.5984327,56.2849379 L45.345796,56.732 L40.7662551,58.1213992 C36.8111111,59.3185185 32.8555556,60.5111111 28.9,61.7 C19.2827006,64.6098496 9.64107703,67.495375 -0.000877570193,70.3805694 L-0.00092615887,69.1095809 C8.55130081,66.244638 17.1149986,63.3616671 25.7,60.5 C52.8859243,50.9146893 79.8670072,40.9879763 106.756092,30.8891256 L109.777796,32.977 L105.724143,34.4964335 L105.724143,34.4964335 L96.869796,37.829 L105.303005,34.6696469 L105.303005,34.6696469 L109.784796,32.982 L113.064795,35.2487122 C112.639816,35.4075777 112.214857,35.5665009 111.789918,35.7254801 L107.984796,37.151 L111.825514,35.9065844 C112.321356,35.7451752 112.817153,35.5836158 113.312902,35.4219044 L116.099666,37.3462523 C103.093603,41.5962148 90.0536389,45.7322938 77,49.8 C73.7909091,50.8 70.5809917,51.7958678 67.3703231,52.7880541 L62.774796,54.203 L65.7817712,53.0732062 C67.3545455,52.4820248 68.9272727,51.8909091 70.5,51.3 C82.3,46.8333333 94.0888889,42.3666667 105.888889,37.937037 L107.984796,37.151 L105.920319,37.8211934 C90.167644,42.9084362 74.3721708,47.850823 58.5602366,52.7010288 L52.719796,54.488 L58.6185185,52.2703704 C70.4037037,47.8296296 82.1740741,43.3703704 93.9481481,38.9296296 L96.659796,37.908 Z" id="Combined-Shape"></path>
                </g>
            </g>
        </g>
    </g>
</svg>